General
------------------
Complete name                    : Rob.S01E04.Family.Secrets.[phTV].mkv
Format                           : Matroska
File size                        : 49.6 MiB
Duration                         : 21mn 2s
Overall bit rate                 : 330 Kbps
Encoded date                     : UTC 2012-02-05 05:27:29

Video
------------------
ID                               : 1
Format                           : AVC
Format/Info                      : Advanced Video Codec
Format profile                   : High@L3.0
Format settings, CABAC           : Yes
Format settings, ReFrames        : 4 frames
Format settings, GOP             : M=2, N=32
Muxing mode                      : Container profile=Unknown@3.0
Codec ID                         : V_MPEG4/ISO/AVC
Duration                         : 21mn 2s
Bit rate                         : 264 Kbps
Width                            : 624 pixels
Height                           : 352 pixels
Display aspect ratio             : 16:9
Frame rate                       : 23.976 fps
Color space                      : YUV
Chroma subsampling               : 4:2:0
Bit depth                        : 8 bits
Scan type                        : Progressive
Bits/(Pixel*Frame)               : 0.050
Stream size                      : 39.0 MiB (79%)

Audio
------------------
ID                               : 2
Format                           : AC-3
Format/Info                      : Audio Coding 3
Mode extension                   : CM (complete main)
Codec ID                         : A_AC3
Duration                         : 21mn 2s
Bit rate mode                    : Constant
Bit rate                         : 64.0 Kbps
Channel(s)                       : 2 channels
Channel positions                : Front: L R
Sampling rate                    : 48.0 KHz
Stream size                      : 9.63 MiB (19%)

Subtitle
*****************
Language                         : English
Format                           : srt
File                             : Rob.S01E04.Family.Secrets.[phTV].srt

-----------------------------------------------------------------
!       Hi..... enjoy... and don't forget to SEED... pls         !
!                  ....take care....                             !
-----------------------------------------------------------------
